<svg viewBox="0 0 448 512"><path fill="currentColor" d="M439.39 362.29c-19.32-20.76-55.47-51.99-55.47-154.29 0-77.7-54.48-139.9-127.94-155.16V32c0-17.67-14.32-32-31.98-32a32 32 0 00-31.98 32v20.84C118.56 68.1 64.08 130.3 64.08 208c0 102.3-36.15 133.53-55.47 154.29A31.24 31.24 0 000 384c.11 16.4 12.98 32 32.1 32h383.8c19.12 0 32-15.6 32.1-32a31.23 31.23 0 00-8.61-21.71zM67.53 368c21.22-27.97 44.42-74.33 44.53-159.42 0-.2-.06-.38-.06-.58 0-61.86 50.14-112 112-112s112 50.14 112 112c0 .2-.06.38-.06.58.11 85.1 23.31 131.46 44.53 159.42H67.53zM224 512a63.99 63.99 0 0063.97-64H160.03c0 35.35 28.65 64 63.97 64z"/></svg>